# xmcd
#
# Track frame offsets:
# 150
# 15955
# 37830
# 54800
# 75362
# 91917
# 107652
# 126157
# 143417
# 164305
# 188632
# 202977
# 219887
# 240467
#
# Disc length: 3383 seconds
#
#
# Revision: 1
# Processed by: cddbd v1.5.1PL2 Copyright (c) Steve Scherf et al.
# Submitted via: FreeRIP 2.945 
#
DISCID=960d350e
DTITLE=Fábio Jr. - Compromisso - Compromisso
DYEAR=1900
DGENRE=
TTITLE0=Na Canção
TTITLE1=Dou Minha Palavra
TTITLE2=Café Da Manhã
TTITLE3=Interessado
TTITLE4=Mundo Da Lua
TTITLE5=Independência Ou Morte
TTITLE6=Viver Ensina
TTITLE7=Velho Amigo
TTITLE8=Uma Historia De Amor
TTITLE9=O Que Você Me Faz
TTITLE10=Beijo Na Boca
TTITLE11=Compromisso
TTITLE12=Em Nome Do Amor
TTITLE13=Sorri (Smile)
EXTD=
EXTT0=
EXTT1=
EXTT2=
EXTT3=
EXTT4=
EXTT5=
EXTT6=
EXTT7=
EXTT8=
EXTT9=
EXTT10=
EXTT11=
EXTT12=
EXTT13=
PLAYORDER=
